<svg width="25" height="24" viewBox="0 0 25 24" fill="none" xmlns="http://www.w3.org/2000/svg">
<path d="M2.92056 8.71942C3.61133 6.07055 5.72187 4.04402 8.37215 3.48483L8.87858 3.37798C11.2672 2.87401 13.7328 2.87401 16.1214 3.37798L16.6278 3.48483C19.2781 4.04402 21.3887 6.07055 22.0794 8.71943C22.6402 10.8697 22.6402 13.1303 22.0794 15.2806C21.3887 17.9295 19.2781 19.956 16.6278 20.5152L16.1214 20.622C13.7328 21.126 11.2672 21.126 8.87858 20.622L8.37215 20.5152C5.72187 19.956 3.61133 17.9295 2.92056 15.2806C2.35981 13.1303 2.35981 10.8697 2.92056 8.71942Z" fill="none" stroke="#5A7E9A" stroke-width="1.5"/>
<path d="M6.5 12H8.5L10.5 15L14.5 9L16.5 12H18.5" stroke="#5A7E9A" stroke-width="1.5" stroke-linecap="round" stroke-linejoin="round"/>
</svg>
