<svg width="24" height="25" viewBox="0 0 24 25" fill="none" xmlns="http://www.w3.org/2000/svg">
<g clip-path="url(#clip0_2134_288)">
<path d="M12 24.5C5.37225 24.5 0 19.1278 0 12.5C0 5.87225 5.37225 0.5 12 0.5C18.6278 0.5 24 5.87225 24 12.5C24 19.1278 18.6278 24.5 12 24.5ZM17.3025 6.5L13.872 9.89225C13.3729 10.3849 12.6998 10.6611 11.9985 10.6611C11.2972 10.6611 10.6241 10.3849 10.125 9.89225L6.6975 6.5H4.52625L9.04125 10.9677C9.82998 11.7448 10.8928 12.1804 12 12.1804C13.1072 12.1804 14.17 11.7448 14.9587 10.9677L19.4708 6.5H17.3032H17.3025ZM6.67125 18.9222L10.128 15.5C10.6271 15.0074 11.3002 14.7311 12.0015 14.7311C12.7028 14.7311 13.3759 15.0074 13.875 15.5L17.3288 18.9222H19.5L14.9587 14.4275C14.17 13.6504 13.1072 13.2148 12 13.2148C10.8928 13.2148 9.82998 13.6504 9.04125 14.4275L4.5 18.9215H6.67125V18.9222Z" fill="black"/>
</g>
<defs>
<clipPath id="clip0_2134_288">
<rect width="24" height="24" fill="white" transform="translate(0 0.5)"/>
</clipPath>
</defs>
</svg>
